<svg xmlns="http://www.w3.org/2000/svg" xml:space="preserve" width="454.22815" height="447.69495" viewBox="0 0 454.22815 447.69494"><g style="stroke-width:.45334"><g style="stroke-width:.45334"><path d="M0 0v6.768l.216 2.088.288 1.8.576 2.52.432 2.232.576 1.512.792 1.368.144 2.088.144 1.368 1.368 2.952.288 1.8 1.008 2.088 1.08 2.088.864 1.656 1.368 1.8 1.08 2.232 1.296 1.368.36 1.8 1.152 1.512.864 1.224 1.656 1.656 1.08 1.656 1.8 2.232L19.8 48.96l1.296 1.872 1.8 1.152 3.456 2.232 1.8 1.8 1.656.936 1.944 1.296 2.232 1.368 2.52 1.368 2.592 1.008 3.24 1.368 3.6 1.008s15.12 2.304 21.096.792l2.088-.792 1.224-1.008h1.8l1.152-.576h1.368l1.368-.504.864.216.576.576 1.224.72 1.08.432.288-.72-.288-4.176.144-.72 1.008-.504.792.288.864.648h1.368l.72.432h.936l.72-.288.144-.288-.432-14.04.144-6.264v-5.688l-.288-19.008.432-9.504-.576-2.592.576-1.656.576-1.944 1.224-.432-15.84.432L73.44-.144l.792 2.088-.288 5.688v13.176l1.008 1.656.72 1.368-1.296 1.152-1.08 1.224v2.088l-.288 1.8v1.656l.144 2.232v2.088l.576 1.944-.432 1.656.792 2.448v8.208l-4.536.792-3.744.144-2.52.432-1.944-.144h-2.52l-1.656-.144-1.944-.288-2.88-.936-2.664-.72-2.664-1.512-2.736-.576-2.232-.792-1.656-.864-1.656-.648-2.232-.72-1.152-1.296-2.304-1.224-1.008-.936-1.224-1.224-1.944-.792-1.152-1.008-1.08-1.08-2.52-3.888-2.448-2.808-1.008-1.8-.144-1.08v-1.584l-.576-.936H18.72l-.288-2.232-1.656-2.88-.72-2.376-.648-1.944-.576-2.232-.72-1.944-.792-1.512V7.632l-.864-1.8-.432-1.8L11.88.288l.144-2.088Z" style="fill:#e52020;fill-opacity:1;fill-rule:nonzero;stroke:none;stroke-width:.45334" transform="matrix(2.94113 0 0 -2.94113 0 193.157)"/></g><g style="stroke-width:.45334"><path d="m0 0 4.176-3.744L4.464 0l.648.288 3.6-.792L7.488-2.88 5.616-3.6l-.144-2.376c-1.368-.288-2.664.072-3.96 1.08a12.6 12.6 0 0 0-3.24 3.744z" style="fill:#e52020;fill-opacity:1;fill-rule:nonzero;stroke:none;stroke-width:.45334" transform="matrix(2.94113 0 0 -2.94113 8.894 203.958)"/></g><g style="stroke-width:.45334"><path d="m0 0-1.728-2.52.648 3.384Z" style="fill:#e52020;fill-opacity:1;fill-rule:nonzero;stroke:none;stroke-width:.45334" transform="matrix(2.94113 0 0 -2.94113 12.282 196.333)"/></g><g style="stroke-width:.45334"><path d="m0 0 2.088-1.296-1.008-2.16-2.808 1.728Z" style="fill:#e52020;fill-opacity:1;fill-rule:nonzero;stroke:none;stroke-width:.45334" transform="matrix(2.94113 0 0 -2.94113 18.422 195.275)"/></g><g style="stroke-width:.45334"><path d="m0 0 .36 3.456L5.544-.936l-3.456-.72Z" style="fill:#e52020;fill-opacity:1;fill-rule:nonzero;stroke:none;stroke-width:.45334" transform="matrix(2.94113 0 0 -2.94113 13.764 209.251)"/></g><g style="stroke-width:.45334"><path d="m0 0-3.096-1.512 1.008 6.768 2.376-2.52z" style="fill:#e52020;fill-opacity:1;fill-rule:nonzero;stroke:none;stroke-width:.45334" transform="matrix(2.94113 0 0 -2.94113 35.152 213.062)"/></g><g style="stroke-width:.45334"><path d="M0 0h.648l.72-.432L.36-2.088-1.008-.864Z" style="fill:#e52020;fill-opacity:1;fill-rule:nonzero;stroke:none;stroke-width:.45334" transform="matrix(2.94113 0 0 -2.94113 218.75 388.826)"/></g><g style="stroke-width:.45334"><path d="M0 0h.648l.72-.432-1.08-1.656L-1.08-.864z" style="fill:#e52020;fill-opacity:1;fill-rule:nonzero;stroke:none;stroke-width:.45334" transform="matrix(2.94113 0 0 -2.94113 450.205 217.51)"/></g><g style="stroke-width:.45334"><path d="M0 0h.72l.648-.432L.36-2.16-1.008-.864Z" style="fill:#e52020;fill-opacity:1;fill-rule:nonzero;stroke:none;stroke-width:.45334" transform="matrix(2.94113 0 0 -2.94113 246.278 15.7)"/></g><g style="stroke-width:.45334"><path d="M0 0h.72l.648-.432L.36-2.16-1.008-.864Z" style="fill:#e52020;fill-opacity:1;fill-rule:nonzero;stroke:none;stroke-width:.45334" transform="matrix(2.94113 0 0 -2.94113 258.349 35.395)"/></g><g style="stroke-width:.45334"><path d="m0 0-.504.72-.144-.144-.072.216-.36-.144c.144-.288.36-.576.72-.792s.648-.288.864-.144v.504z" style="fill:#e52020;fill-opacity:1;fill-rule:nonzero;stroke:none;stroke-width:.45334" transform="matrix(2.94113 0 0 -2.94113 43.2 204.38)"/></g><g style="stroke-width:.45334"><path d="m0 0-.144-.072v-.216l.216-.288Z" style="fill:#e52020;fill-opacity:1;fill-rule:nonzero;stroke:none;stroke-width:.45334" transform="matrix(2.94113 0 0 -2.94113 8.47 199.086)"/></g><g style="stroke-width:.45334"><path d="M0 0h-8.28l-2.304-.216-2.592.432-1.224.648-3.024-.216L-19.296 0l-20.016-.432-2.592.216-2.16-.216-10.44-.864h-6.768l-2.16-2.52-3.816-2.736v-1.512l-3.384-.432v-2.592l.216-.648 1.008-.792v-1.296l-.36-2.592-.216-2.736v-5.112l.432-1.728.792-1.728.432-1.872.432-1.296.216-1.656.432-2.16.864-.648.864-1.944v-1.872l.648-2.304 1.008-1.512.216-1.944 1.512-1.44 1.296-2.16 1.656-1.728.432-.648 1.296-1.008.432-1.512 1.296-1.08.432-1.296 1.08-1.008 1.008-1.512.864-1.728.648-1.512 1.944-1.224 1.224-.864.864-1.296 1.512-1.296 1.512-1.224 1.224-1.08 1.512-1.08 1.512-1.08 1.656-1.44 1.512-1.296 1.08-.648 1.512-.648 1.44-1.296.648-.648 1.08-1.008 1.728-.432 1.44-.432 1.08-.648 1.296-.648 1.512-.648h1.872l.648-.792 1.512-.288 1.872-.144h1.512l2.16-.432 1.656-.864h1.512l1.512-1.296 1.44-.432 1.08.864.648.648h1.728l.432.648 1.224.432 1.08.576.216 1.08v1.512l.648.216.864-.432.864-.216h.576v1.296l-1.44.432h-1.296l-1.08.216h-.648l-.144.792v.864h.36l1.08.216.216.648.648-.432.648-.432h1.08v.864l-.864 1.512-1.728.432-1.296.216-1.008.864-.648.144-1.728.648h-1.944l-1.008.216-1.728.864-1.296.864-1.08.432-1.44.648-1.296 1.008-.432.432-.648.432-.864.216-.792.216-.864.216-.864.864-.648.864-.432.432-.648.648-.864 1.224-.792.216-1.944.864-.864.648-1.296.432-1.008.648-1.08.216-1.08.432-1.08 1.008-.648 1.08-1.008 1.728-1.296 1.512v1.224l-1.296 1.512-1.08.648-.648 1.512v1.008l-1.656.864-.864 1.512-.864 1.512-1.08 1.224-.864.864-.792.432v2.736l-1.08.432-.864 1.08-1.08 1.728-.432 1.944-.792 2.736-.864 1.728v1.656l-.648.648-.864 1.08-.216 1.08v1.728l-1.08 2.52-.216.864-.216 1.512-.576 1.224v2.808h19.368s.792-.216 2.304 0 2.16.216 2.16.216h9.36l2.952-.216 2.376-.432h4.464l1.512.216h7.2l2.376-.216 2.088-.648 3.816-.216 2.808.648z" style="fill:#e52020;fill-opacity:1;fill-rule:nonzero;stroke:none;stroke-width:.45334" transform="matrix(2.94113 0 0 -2.94113 212.608 198.451)"/></g><g style="stroke-width:.45334"><path d="m0 0 .864-.864L-.648.648l2.376-2.592.648-.864.864-1.008.432-.864.792-.648H5.76l1.08.432.216 1.728H5.112v1.656l.432.648h1.08l.648.648-.648 1.728.216 1.512v6.768l.216 1.296v1.944l.216 1.872V19.8l-.216 1.296-.216 2.376v2.088l-.432 5.328v2.52L6.84 36l.216 2.52-.216 1.944v1.944l.216 2.736v4.248l-.216.864.216 3.384.648 1.296.216 1.512 2.52 3.816.648 7.632L9 69.408-5.544 56.232v-5.328l.216-1.728v-2.52l-1.008-1.08.36-.648.648-.864s.432 0 .432-1.224v-6.192l-.432-1.944v-7.056l.432-1.44v-2.592l.216-1.656-.216-1.728-.216-2.16v-3.168l-.216-2.52V7.488l.432-1.944 1.512-.432 1.296-.864-.432-.792v-1.08l.648-.864.576.648L0 .864Z" style="fill:#e52020;fill-opacity:1;fill-rule:nonzero;stroke:none;stroke-width:.45334" transform="matrix(2.94113 0 0 -2.94113 232.726 403.86)"/></g><g style="stroke-width:.45334"><path d="M0 0v1.584l1.584.36 1.584.936h3.168l1.584.36 2.88 1.224 1.656-.288 1.224-.288h1.584l3.24-.36.936-.648h2.592l2.232-1.296 2.232-.288L28.368 0l1.944-.648 1.944-1.224L33.84-2.88h2.232l1.584-.936 1.296-1.296 1.584-.936.936-.288 1.296-1.656 1.944-1.224 1.872-1.296 1.584-.648 1.008-1.944 1.224-.648.648-1.584 1.944-1.152 1.296-1.656.936-.576.648-1.656.936-1.584.648-1.584.936-2.88 1.008-2.232.936-1.296.648-2.232.288-3.168.648-2.232.936-2.232v-1.944s.36-.648.36-1.872c0-1.296.288-2.88.288-2.88l.36-2.88.648-2.88v-2.232l.288-1.944v-2.52l-.648-2.304.648-1.872.36-1.296v-1.872l-1.656-.648 1.296-1.008.936-1.872-.936-.936-1.296-.648-1.224-1.296-1.008-.648h-5.4l-2.232-.648h-1.944l-6.048.36-2.592.288h-2.88l-3.168-.288-2.52.288-2.88.288h-5.112l-2.88-.288-3.528.648-2.88-.648-1.296 1.296h-3.816l-12.744-.216-.648 4.968 1.584 8.64h8.64l4.104-.288 1.656-1.008h11.16l3.168-.288h3.528l2.232-1.296.648.936v1.296l.936-.288 1.584-.648h2.232l2.304-.36.576-.936 1.008-.288h1.224l1.296.288v1.584h.936l1.944-.936-1.296-.936 1.008-.648 1.224-.36 1.008-.936v1.584l.648.936 1.224.36.648.936h3.24l.936.36v.936l-.936.288-1.656 1.944-.288 1.584-1.296 1.008h-.936l-1.296 1.872v3.528l-.936 1.584-.36.936-.936 1.296-.936 1.584-.36 1.944v1.296l-.648 1.872-1.584 1.584L45-35.064l-1.296 1.944-.648 1.296-.936 1.584-.936.648-.36 1.584-1.224.648-.36 1.584-.936.648-1.296 1.296-.936 1.224-1.008.36-.936.936-1.872 1.944-1.008 1.224h-.936l-1.584 1.008-.936.936-1.656 1.512-.936.936-1.296 1.008-1.584.288h-1.944l-1.224 1.296h-1.656l-1.224.936h-4.464l-2.232.648-.648.936H6.336l-2.232.648-1.872.648v1.296l1.224.936h1.296l.936 1.296h-.936l-1.584.648-.648 1.296H.288Z" style="fill:#e52020;fill-opacity:1;fill-rule:nonzero;stroke:none;stroke-width:.45334" transform="matrix(2.94113 0 0 -2.94113 257.925 25.23)"/></g><g style="stroke-width:.45334"><path d="m0 0-.504.72-.144-.072-.072.144-.36-.144c.072-.288.36-.576.72-.792s.648-.288.864-.144v.504z" style="fill:#e52020;fill-opacity:1;fill-rule:nonzero;stroke:none;stroke-width:.45334" transform="matrix(2.94113 0 0 -2.94113 56.963 232.545)"/></g><g style="stroke-width:.45334"><path d="m0 0-.72.504-.072-.216-.144.144-.288-.288c.216-.216.504-.36.936-.432s.72 0 .936.216L.432.36Z" style="fill:#e52020;fill-opacity:1;fill-rule:nonzero;stroke:none;stroke-width:.45334" transform="matrix(2.94113 0 0 -2.94113 369.312 205.863)"/></g><g style="stroke-width:.45334"><path d="m0 0-.72.504L-.792.36l-.216.144-.216-.288c.216-.216.504-.36.936-.432s.72 0 .936.144L.36.432Z" style="fill:#e52020;fill-opacity:1;fill-rule:nonzero;stroke:none;stroke-width:.45334" transform="matrix(2.94113 0 0 -2.94113 437.923 200.357)"/></g><g style="stroke-width:.45334"><path d="m0 0-.504-.72.216-.072-.144-.144.216-.288c.288.216.432.504.504.936s0 .72-.144.936L-.288.432Z" style="fill:#e52020;fill-opacity:1;fill-rule:nonzero;stroke:none;stroke-width:.45334" transform="matrix(2.94113 0 0 -2.94113 242.467 74.358)"/></g><g style="stroke-width:.45334"><path d="m0 0-.504-.72.144-.072-.144-.144.288-.288C0-1.08.216-.72.216-.288.288.072.288.36.072.576L-.36.36Z" style="fill:#e52020;fill-opacity:1;fill-rule:nonzero;stroke:none;stroke-width:.45334" transform="matrix(2.94113 0 0 -2.94113 219.384 112.477)"/></g><g style="stroke-width:.45334"><path d="m0 0-.072-.288.216.072.072-.144-.072-.144h.144a.55.55 0 0 1-.144.36C.144-.072.072-.072 0 0" style="fill:#e52020;fill-opacity:1;fill-rule:nonzero;stroke:none;stroke-width:.45334" transform="matrix(2.94113 0 0 -2.94113 198.631 428.848)"/></g><g style="stroke-width:.45334"><path d="m0 0-.216-.864.648.288.216-.432-.216-.576.576.144c-.072.432-.216.72-.432.936C.432-.288.216-.144 0 0" style="fill:#e52020;fill-opacity:1;fill-rule:nonzero;stroke:none;stroke-width:.45334" transform="matrix(2.94113 0 0 -2.94113 441.098 225.346)"/></g><g style="stroke-width:.45334"><path d="m0 0 3.816.936 6.048.288 7.704-.936 1.296-1.296-2.88-7.344L8.928-14.4 2.52-7.704Z" style="fill:#e52020;fill-opacity:1;fill-rule:nonzero;stroke:none;stroke-width:.45334" transform="matrix(2.94113 0 0 -2.94113 207.103 198.663)"/></g><g style="stroke-width:.45334"><path d="m0 0 2.808.288.936-.936-.648-1.584 1.296-.288.648-1.656v-1.872h1.584l.936-.936 1.296-1.008h1.872l.648 1.008 1.008.288.936.288h1.296l.936-.936.936.36 1.008.288 1.584.648 2.232.288 1.584 1.008 1.584.936 1.584.936h1.008l1.584 1.584L30.24-.288 31.824 0l1.296.288 1.296.648.936 1.008 1.296 1.296.936 1.224 1.584 1.656h1.008L41.4 7.704h1.296l.648 1.584 1.584.936.648 1.944 1.296.648.936 1.224 1.296 1.008 1.224 1.584 1.656 2.232 1.224 1.584.648 1.944 1.296.288.648 1.296 1.296.936.648 1.584V28.8h.936l.648 1.224v1.296l1.224.648.648 1.584.648 1.584v1.296l1.008 2.52.576 1.296.36.936v1.296l.648 1.944.288 1.584 1.296 1.584v7.344l-.36 1.584-.576 1.656-1.008.288v2.232l-2.88 2.88h-1.872l-1.584-1.944-1.296-1.584.648-1.584v-1.296l.288-1.584V53.64h-3.168l-.648-1.584v-2.52l.936-1.656v-1.584l-1.296-.936v-1.944l-.576-1.224h-1.008v-1.584h-1.296l-.576-1.008-.648-1.296-.648-1.224-.936-1.296v-.936l-1.008-1.296v-.936l-.936-1.296-.936-.936-.36-1.584-.936-.648-.36-1.008-.936-1.224-1.296-1.944-.936-.648-1.296-.36-.648-1.224-1.224-1.008L36 19.8l-1.296-.936-.936-.36-.648-.936-1.296-.936-.936-.648-.936-1.296-1.008-.648-.648-.936h-1.224l-1.008-.936-1.584-1.008-1.584-.288-1.584-1.296h-1.584l-.648-1.224-1.584-.648-1.296-.36h-1.296l-1.944-.288-.288-1.296h-.936l-1.296-.288-1.296-.648H6.912l-.936-.648H4.392l-.648-.936-1.296-1.008-1.152-.072H.216z" style="fill:#e52020;fill-opacity:1;fill-rule:nonzero;stroke:none;stroke-width:.45334" transform="matrix(2.94113 0 0 -2.94113 249.666 419.53)"/></g><g style="stroke-width:.45334"><path d="m0 0-.936.504-.072-.216-.216.144-.288-.288q.324-.432 1.08-.432C.072-.36.432-.216.72-.072L.432.432Z" style="fill:#e52020;fill-opacity:1;fill-rule:nonzero;stroke:none;stroke-width:.45334" transform="matrix(2.94113 0 0 -2.94113 277.618 429.906)"/></g></g></svg>